# xmcd
#
# Track frame offsets:
#	150
#	11084
#	26171
#	36704
#	50077
#	61186
#	72584
#	84376
#	96563
#	110016
#	121598
#	132520
#	146791
#	158890
#
# Disc length: 2344 seconds
#
# Revision: 0
# Processed by: cddbd v1.5.2PL0 Copyright (c) Steve Scherf et al.
# Submitted via: audiograbber 1.83.01
#
DISCID=d509260e
DTITLE=DIE ROSSKOGELBUAM - Start frei für die Volksmusik
DYEAR=2013
DGENRE=volkstümlich
TTITLE0=Immer wieder Polka-Fieber
TTITLE1=Komm, i zeig dir Tirol
TTITLE2=Sensationell
TTITLE3=Auch für dich steht ein Stern am Himmelszelt
TTITLE4=Start frei für die Volksmusik
TTITLE5=Di will i und sonst koane 
TTITLE6=Komm und tanz mit mir
TTITLE7=Am Sonntag isch Kirchtag 
TTITLE8=Der Himmel glühte wie aus Feuer
TTITLE9=Rosskogelbuam des san mir
TTITLE10=Des kriag ma scho
TTITLE11=In geheimer Mission
TTITLE12=Viele Wege führ'n nach Rom
TTITLE13=Ein Musikant kennt kein Zuhause 
EXTD=
EXTT0=
EXTT1=
EXTT2=
EXTT3=
EXTT4=
EXTT5=
EXTT6=
EXTT7=
EXTT8=
EXTT9=
EXTT10=
EXTT11=
EXTT12=
EXTT13=
PLAYORDER=
